<svg width="761" height="1274" xmlns="http://www.w3.org/2000/svg" xmlns:xlink="http://www.w3.org/1999/xlink" xml:space="preserve" overflow="hidden"><g transform="translate(-517 -930)"><g><path d="M523.5 1059.5C523.5 990.465 579.465 934.5 648.502 934.5L1148.5 934.5C1217.53 934.5 1273.5 990.465 1273.5 1059.5L1273.5 2074.5C1273.5 2143.53 1217.53 2199.5 1148.5 2199.5L648.502 2199.5C579.465 2199.5 523.5 2143.53 523.5 2074.5Z" stroke="#172C51" stroke-width="4.58333" stroke-linecap="butt" stroke-linejoin="miter" stroke-miterlimit="8" stroke-opacity="1" fill="#4472C4" fill-rule="evenodd" fill-opacity="1"/><path d="M551.5 1170.5C551.5 1079.37 625.373 1005.5 716.5 1005.5 807.627 1005.5 881.5 1079.37 881.5 1170.5 881.5 1261.63 807.627 1335.5 716.5 1335.5 625.373 1335.5 551.5 1261.63 551.5 1170.5Z" stroke="#172C51" stroke-width="4.58333" stroke-linecap="butt" stroke-linejoin="miter" stroke-miterlimit="8" stroke-opacity="1" fill="#ED7D31" fill-rule="evenodd" fill-opacity="1"/><text fill="#FFFFFF" fill-opacity="1" font-family="Calibri,Calibri_MSFontService,sans-serif" font-style="normal" font-variant="normal" font-weight="400" font-stretch="normal" font-size="83" text-anchor="start" direction="ltr" writing-mode="lr-tb" unicode-bidi="normal" text-decoration="none" transform="matrix(1 0 0 1 694.88 1197)">1</text><path d="M909.5 1170.5C909.5 1079.37 983.373 1005.5 1074.5 1005.5 1165.63 1005.5 1239.5 1079.37 1239.5 1170.5 1239.5 1261.63 1165.63 1335.5 1074.5 1335.5 983.373 1335.5 909.5 1261.63 909.5 1170.5Z" stroke="#172C51" stroke-width="4.58333" stroke-linecap="butt" stroke-linejoin="miter" stroke-miterlimit="8" stroke-opacity="1" fill="#ED7D31" fill-rule="evenodd" fill-opacity="1"/><text fill="#FFFFFF" fill-opacity="1" font-family="Calibri,Calibri_MSFontService,sans-serif" font-style="normal" font-variant="normal" font-weight="400" font-stretch="normal" font-size="83" text-anchor="start" direction="ltr" writing-mode="lr-tb" unicode-bidi="normal" text-decoration="none" transform="matrix(1 0 0 1 1052.61 1197)">2</text><path d="M551.5 1565.5C551.5 1474.37 625.373 1400.5 716.5 1400.5 807.627 1400.5 881.5 1474.37 881.5 1565.5 881.5 1656.63 807.627 1730.5 716.5 1730.5 625.373 1730.5 551.5 1656.63 551.5 1565.5Z" stroke="#172C51" stroke-width="4.58333" stroke-linecap="butt" stroke-linejoin="miter" stroke-miterlimit="8" stroke-opacity="1" fill="#ED7D31" fill-rule="evenodd" fill-opacity="1"/><text fill="#FFFFFF" fill-opacity="1" font-family="Calibri,Calibri_MSFontService,sans-serif" font-style="normal" font-variant="normal" font-weight="400" font-stretch="normal" font-size="83" text-anchor="start" direction="ltr" writing-mode="lr-tb" unicode-bidi="normal" text-decoration="none" transform="matrix(1 0 0 1 694.88 1592)">3</text><path d="M909.5 1565.5C909.5 1474.37 983.373 1400.5 1074.5 1400.5 1165.63 1400.5 1239.5 1474.37 1239.5 1565.5 1239.5 1656.63 1165.63 1730.5 1074.5 1730.5 983.373 1730.5 909.5 1656.63 909.5 1565.5Z" stroke="#172C51" stroke-width="4.58333" stroke-linecap="butt" stroke-linejoin="miter" stroke-miterlimit="8" stroke-opacity="1" fill="#ED7D31" fill-rule="evenodd" fill-opacity="1"/><text fill="#FFFFFF" fill-opacity="1" font-family="Calibri,Calibri_MSFontService,sans-serif" font-style="normal" font-variant="normal" font-weight="400" font-stretch="normal" font-size="83" text-anchor="start" direction="ltr" writing-mode="lr-tb" unicode-bidi="normal" text-decoration="none" transform="matrix(1 0 0 1 1052.61 1592)">4</text><path d="M551.5 1960.5C551.5 1869.37 625.373 1795.5 716.5 1795.5 807.627 1795.5 881.5 1869.37 881.5 1960.5 881.5 2051.63 807.627 2125.5 716.5 2125.5 625.373 2125.5 551.5 2051.63 551.5 1960.5Z" stroke="#172C51" stroke-width="4.58333" stroke-linecap="butt" stroke-linejoin="miter" stroke-miterlimit="8" stroke-opacity="1" fill="#ED7D31" fill-rule="evenodd" fill-opacity="1"/><text fill="#FFFFFF" fill-opacity="1" font-family="Calibri,Calibri_MSFontService,sans-serif" font-style="normal" font-variant="normal" font-weight="400" font-stretch="normal" font-size="83" text-anchor="start" direction="ltr" writing-mode="lr-tb" unicode-bidi="normal" text-decoration="none" transform="matrix(1 0 0 1 694.88 1987)">5</text><path d="M909.5 1960.5C909.5 1869.37 983.373 1795.5 1074.5 1795.5 1165.63 1795.5 1239.5 1869.37 1239.5 1960.5 1239.5 2051.63 1165.63 2125.5 1074.5 2125.5 983.373 2125.5 909.5 2051.63 909.5 1960.5Z" stroke="#172C51" stroke-width="4.58333" stroke-linecap="butt" stroke-linejoin="miter" stroke-miterlimit="8" stroke-opacity="1" fill="#ED7D31" fill-rule="evenodd" fill-opacity="1"/><text fill="#FFFFFF" fill-opacity="1" font-family="Calibri,Calibri_MSFontService,sans-serif" font-style="normal" font-variant="normal" font-weight="400" font-stretch="normal" font-size="83" text-anchor="start" direction="ltr" writing-mode="lr-tb" unicode-bidi="normal" text-decoration="none" transform="matrix(1 0 0 1 1052.61 1987)">6</text></g></g></svg>