<svg width="761" height="866" xmlns="http://www.w3.org/2000/svg" xmlns:xlink="http://www.w3.org/1999/xlink" xml:space="preserve" overflow="hidden"><g transform="translate(-1750 -1104)"><g><path d="M1757.5 1236.67C1757.5 1167.54 1813.54 1111.5 1882.67 1111.5L2383.33 1111.5C2452.46 1111.5 2508.5 1167.54 2508.5 1236.67L2508.5 1840.33C2508.5 1909.46 2452.46 1965.5 2383.33 1965.5L1882.67 1965.5C1813.54 1965.5 1757.5 1909.46 1757.5 1840.33Z" stroke="#172C51" stroke-width="4.58333" stroke-linecap="butt" stroke-linejoin="miter" stroke-miterlimit="8" stroke-opacity="1" fill="#4472C4" fill-rule="evenodd" fill-opacity="1"/><path d="M1785.5 1348.5C1785.5 1257.37 1859.37 1183.5 1950.5 1183.5 2041.63 1183.5 2115.5 1257.37 2115.5 1348.5 2115.5 1439.63 2041.63 1513.5 1950.5 1513.5 1859.37 1513.5 1785.5 1439.63 1785.5 1348.5Z" stroke="#172C51" stroke-width="4.58333" stroke-linecap="butt" stroke-linejoin="miter" stroke-miterlimit="8" stroke-opacity="1" fill="#ED7D31" fill-rule="evenodd" fill-opacity="1"/><text fill="#FFFFFF" fill-opacity="1" font-family="Calibri,Calibri_MSFontService,sans-serif" font-style="normal" font-variant="normal" font-weight="400" font-stretch="normal" font-size="83" text-anchor="start" direction="ltr" writing-mode="lr-tb" unicode-bidi="normal" text-decoration="none" transform="matrix(1 0 0 1 1908.34 1375)">13</text><path d="M2143.5 1348.5C2143.5 1257.37 2217.37 1183.5 2308.5 1183.5 2399.63 1183.5 2473.5 1257.37 2473.5 1348.5 2473.5 1439.63 2399.63 1513.5 2308.5 1513.5 2217.37 1513.5 2143.5 1439.63 2143.5 1348.5Z" stroke="#172C51" stroke-width="4.58333" stroke-linecap="butt" stroke-linejoin="miter" stroke-miterlimit="8" stroke-opacity="1" fill="#ED7D31" fill-rule="evenodd" fill-opacity="1"/><text fill="#FFFFFF" fill-opacity="1" font-family="Calibri,Calibri_MSFontService,sans-serif" font-style="normal" font-variant="normal" font-weight="400" font-stretch="normal" font-size="83" text-anchor="start" direction="ltr" writing-mode="lr-tb" unicode-bidi="normal" text-decoration="none" transform="matrix(1 0 0 1 2266.07 1375)">14</text><path d="M1785.5 1743.5C1785.5 1652.37 1859.37 1578.5 1950.5 1578.5 2041.63 1578.5 2115.5 1652.37 2115.5 1743.5 2115.5 1834.63 2041.63 1908.5 1950.5 1908.5 1859.37 1908.5 1785.5 1834.63 1785.5 1743.5Z" stroke="#172C51" stroke-width="4.58333" stroke-linecap="butt" stroke-linejoin="miter" stroke-miterlimit="8" stroke-opacity="1" fill="#ED7D31" fill-rule="evenodd" fill-opacity="1"/><text fill="#FFFFFF" fill-opacity="1" font-family="Calibri,Calibri_MSFontService,sans-serif" font-style="normal" font-variant="normal" font-weight="400" font-stretch="normal" font-size="83" text-anchor="start" direction="ltr" writing-mode="lr-tb" unicode-bidi="normal" text-decoration="none" transform="matrix(1 0 0 1 1908.34 1770)">15</text><path d="M2143.5 1743.5C2143.5 1652.37 2217.37 1578.5 2308.5 1578.5 2399.63 1578.5 2473.5 1652.37 2473.5 1743.5 2473.5 1834.63 2399.63 1908.5 2308.5 1908.5 2217.37 1908.5 2143.5 1834.63 2143.5 1743.5Z" stroke="#172C51" stroke-width="4.58333" stroke-linecap="butt" stroke-linejoin="miter" stroke-miterlimit="8" stroke-opacity="1" fill="#ED7D31" fill-rule="evenodd" fill-opacity="1"/><text fill="#FFFFFF" fill-opacity="1" font-family="Calibri,Calibri_MSFontService,sans-serif" font-style="normal" font-variant="normal" font-weight="400" font-stretch="normal" font-size="83" text-anchor="start" direction="ltr" writing-mode="lr-tb" unicode-bidi="normal" text-decoration="none" transform="matrix(1 0 0 1 2266.07 1770)">16</text></g></g></svg>