<svg width="761" height="1275" xmlns="http://www.w3.org/2000/svg" xmlns:xlink="http://www.w3.org/1999/xlink" xml:space="preserve" overflow="hidden"><g transform="translate(-2988 -925)"><g><path d="M2992.5 1053.5C2992.5 984.465 3048.47 928.5 3117.5 928.5L3617.5 928.5C3686.53 928.5 3742.5 984.465 3742.5 1053.5L3742.5 2068.5C3742.5 2137.53 3686.53 2193.5 3617.5 2193.5L3117.5 2193.5C3048.47 2193.5 2992.5 2137.53 2992.5 2068.5Z" stroke="#172C51" stroke-width="4.58333" stroke-linecap="butt" stroke-linejoin="miter" stroke-miterlimit="8" stroke-opacity="1" fill="#4472C4" fill-rule="evenodd" fill-opacity="1"/><path d="M3020.5 1164.5C3020.5 1073.37 3094.37 999.5 3185.5 999.5 3276.63 999.5 3350.5 1073.37 3350.5 1164.5 3350.5 1255.63 3276.63 1329.5 3185.5 1329.5 3094.37 1329.5 3020.5 1255.63 3020.5 1164.5Z" stroke="#172C51" stroke-width="4.58333" stroke-linecap="butt" stroke-linejoin="miter" stroke-miterlimit="8" stroke-opacity="1" fill="#ED7D31" fill-rule="evenodd" fill-opacity="1"/><text fill="#FFFFFF" fill-opacity="1" font-family="Calibri,Calibri_MSFontService,sans-serif" font-style="normal" font-variant="normal" font-weight="400" font-stretch="normal" font-size="83" text-anchor="start" direction="ltr" writing-mode="lr-tb" unicode-bidi="normal" text-decoration="none" transform="matrix(1 0 0 1 3163.62 1192)">7</text><path d="M3377.5 1164.5C3377.5 1073.37 3451.37 999.5 3542.5 999.5 3633.63 999.5 3707.5 1073.37 3707.5 1164.5 3707.5 1255.63 3633.63 1329.5 3542.5 1329.5 3451.37 1329.5 3377.5 1255.63 3377.5 1164.5Z" stroke="#172C51" stroke-width="4.58333" stroke-linecap="butt" stroke-linejoin="miter" stroke-miterlimit="8" stroke-opacity="1" fill="#ED7D31" fill-rule="evenodd" fill-opacity="1"/><text fill="#FFFFFF" fill-opacity="1" font-family="Calibri,Calibri_MSFontService,sans-serif" font-style="normal" font-variant="normal" font-weight="400" font-stretch="normal" font-size="83" text-anchor="start" direction="ltr" writing-mode="lr-tb" unicode-bidi="normal" text-decoration="none" transform="matrix(1 0 0 1 3521.35 1192)">8</text><path d="M3020.5 1559.5C3020.5 1468.37 3094.37 1394.5 3185.5 1394.5 3276.63 1394.5 3350.5 1468.37 3350.5 1559.5 3350.5 1650.63 3276.63 1724.5 3185.5 1724.5 3094.37 1724.5 3020.5 1650.63 3020.5 1559.5Z" stroke="#172C51" stroke-width="4.58333" stroke-linecap="butt" stroke-linejoin="miter" stroke-miterlimit="8" stroke-opacity="1" fill="#ED7D31" fill-rule="evenodd" fill-opacity="1"/><text fill="#FFFFFF" fill-opacity="1" font-family="Calibri,Calibri_MSFontService,sans-serif" font-style="normal" font-variant="normal" font-weight="400" font-stretch="normal" font-size="83" text-anchor="start" direction="ltr" writing-mode="lr-tb" unicode-bidi="normal" text-decoration="none" transform="matrix(1 0 0 1 3163.62 1587)">9</text><path d="M3377.5 1559.5C3377.5 1468.37 3451.37 1394.5 3542.5 1394.5 3633.63 1394.5 3707.5 1468.37 3707.5 1559.5 3707.5 1650.63 3633.63 1724.5 3542.5 1724.5 3451.37 1724.5 3377.5 1650.63 3377.5 1559.5Z" stroke="#172C51" stroke-width="4.58333" stroke-linecap="butt" stroke-linejoin="miter" stroke-miterlimit="8" stroke-opacity="1" fill="#ED7D31" fill-rule="evenodd" fill-opacity="1"/><text fill="#FFFFFF" fill-opacity="1" font-family="Calibri,Calibri_MSFontService,sans-serif" font-style="normal" font-variant="normal" font-weight="400" font-stretch="normal" font-size="83" text-anchor="start" direction="ltr" writing-mode="lr-tb" unicode-bidi="normal" text-decoration="none" transform="matrix(1 0 0 1 3500.44 1587)">10</text><path d="M3020.5 1954.5C3020.5 1863.37 3094.37 1789.5 3185.5 1789.5 3276.63 1789.5 3350.5 1863.37 3350.5 1954.5 3350.5 2045.63 3276.63 2119.5 3185.5 2119.5 3094.37 2119.5 3020.5 2045.63 3020.5 1954.5Z" stroke="#172C51" stroke-width="4.58333" stroke-linecap="butt" stroke-linejoin="miter" stroke-miterlimit="8" stroke-opacity="1" fill="#ED7D31" fill-rule="evenodd" fill-opacity="1"/><text fill="#FFFFFF" fill-opacity="1" font-family="Calibri,Calibri_MSFontService,sans-serif" font-style="normal" font-variant="normal" font-weight="400" font-stretch="normal" font-size="83" text-anchor="start" direction="ltr" writing-mode="lr-tb" unicode-bidi="normal" text-decoration="none" transform="matrix(1 0 0 1 3142.7 1982)">11</text><path d="M3377.5 1954.5C3377.5 1863.37 3451.37 1789.5 3542.5 1789.5 3633.63 1789.5 3707.5 1863.37 3707.5 1954.5 3707.5 2045.63 3633.63 2119.5 3542.5 2119.5 3451.37 2119.5 3377.5 2045.63 3377.5 1954.5Z" stroke="#172C51" stroke-width="4.58333" stroke-linecap="butt" stroke-linejoin="miter" stroke-miterlimit="8" stroke-opacity="1" fill="#ED7D31" fill-rule="evenodd" fill-opacity="1"/><text fill="#FFFFFF" fill-opacity="1" font-family="Calibri,Calibri_MSFontService,sans-serif" font-style="normal" font-variant="normal" font-weight="400" font-stretch="normal" font-size="83" text-anchor="start" direction="ltr" writing-mode="lr-tb" unicode-bidi="normal" text-decoration="none" transform="matrix(1 0 0 1 3500.44 1982)">12</text></g></g></svg>