<svg width="788" height="431" xmlns="http://www.w3.org/2000/svg" xmlns:xlink="http://www.w3.org/1999/xlink" xml:space="preserve" overflow="hidden"><g transform="translate(-1159 -265)"><g><path d="M1265.5 298.212C1265.5 283.46 1277.46 271.5 1292.21 271.5L1916.79 271.5C1931.54 271.5 1943.5 283.46 1943.5 298.212L1943.5 664.788C1943.5 679.541 1931.54 691.5 1916.79 691.5L1292.21 691.5C1277.46 691.5 1265.5 679.541 1265.5 664.788Z" stroke="#172C51" stroke-width="4.58333" stroke-linecap="butt" stroke-linejoin="miter" stroke-miterlimit="8" stroke-opacity="1" fill="#FFFFFF" fill-rule="evenodd" fill-opacity="1"/><path d="M1290.5 329.501C1290.5 309.618 1306.62 293.5 1326.5 293.5L1470.5 293.5C1490.38 293.5 1506.5 309.618 1506.5 329.501L1506.5 633.499C1506.5 653.382 1490.38 669.5 1470.5 669.5L1326.5 669.5C1306.62 669.5 1290.5 653.382 1290.5 633.499Z" stroke="#172C51" stroke-width="4.58333" stroke-linecap="butt" stroke-linejoin="miter" stroke-miterlimit="8" stroke-opacity="1" fill="#4472C4" fill-rule="evenodd" fill-opacity="1"/><g><g><g><path d="M213.85 115.15 209.15 35.25 215.417 35.25 215.417 31.3333C215.417 24.2833 210.717 18.4083 204.45 16.45 203.667 16.0583 202.883 15.6667 201.708 15.6667L199.75 15.6667 176.25 15.6667 174.292 15.6667C173.117 15.6667 172.333 16.0583 171.55 16.45 165.283 18.4083 160.583 24.2833 160.583 31.3333L160.583 35.25 166.85 35.25 162.15 115.15C147.267 122.983 137.083 138.65 137.083 156.667L137.083 344.667C137.083 353.283 159.8 360.333 188 360.333 216.2 360.333 238.917 353.283 238.917 344.667L238.917 156.667C238.917 138.65 228.733 122.983 213.85 115.15ZM223.25 339.575C217.767 341.925 205.233 344.667 188 344.667 170.767 344.667 158.233 341.925 152.75 339.575L152.75 274.167 164.108 274.167C169.983 286.308 178.6 293.75 188 293.75 197.4 293.75 206.408 286.308 211.892 274.167L223.25 274.167 223.25 339.575ZM223.25 203.667 211.892 203.667C206.017 191.525 197.4 184.083 188 184.083 178.6 184.083 169.592 191.525 164.108 203.667L152.75 203.667 152.75 156.667C152.75 144.917 159.017 134.342 169.592 128.858L177.425 124.55 177.817 115.542 180.95 62.6667 195.05 62.6667 198.183 115.933 198.575 124.942 206.408 129.25C216.983 134.342 223.25 144.917 223.25 156.667L223.25 203.667Z" fill="#FFFFFF" fill-rule="nonzero" fill-opacity="1" transform="matrix(1.25798 0 0 1 1163 293)"/></g></g></g></g></g></svg>